<?xml version="1.0" encoding="iso-8859-1"?>
<!-- Generator: Adobe Illustrator 19.0.0, SVG Export Plug-In . SVG Version: 6.00 Build 0)  -->
<svg version="1.1" id="Layer_1" xmlns="http://www.w3.org/2000/svg" xmlns:xlink="http://www.w3.org/1999/xlink" x="0px" y="0px"
	 viewBox="0 0 428.583 428.583" style="enable-background:new 0 0 428.583 428.583;" xml:space="preserve">
<g>
	<polygon style="fill:#2488FF;" points="49.664,339.297 0,339.297 0,379.297 70.336,379.297 157.501,256.372 132.983,221.796 	"/>
	<polygon style="fill:#2488FF;" points="157.501,187.22 182.019,221.796 265.336,104.297 315,104.297 315,64.297 244.664,64.297 	
		"/>
	<path style="fill:#005ECE;" d="M391.202,110.465c0.741-0.69,1.679-1.441,2.802-2.243c1.603-1.146,3.382-2.316,5.29-3.48
		c1.893-1.154,3.843-2.306,5.797-3.422c1.964-1.121,3.646-2.104,5.047-2.943c2.074-1.227,4.114-2.579,6.062-4.019
		c1.978-1.458,3.798-3.182,5.408-5.123c1.613-1.945,2.936-4.181,3.929-6.643c1-2.475,1.507-5.316,1.507-8.447
		c0-7.588-2.771-13.699-8.234-18.166c-5.434-4.441-13.336-6.693-23.486-6.693c-4.113,0-8.127,0.38-11.928,1.129
		c-3.808,0.755-7.347,1.776-10.517,3.036c-3.18,1.263-6.08,2.713-8.621,4.313c-2.558,1.611-4.619,3.29-6.128,4.99l-0.291,0.328
		l14.942,17.285l0.379-0.431c2.66-3.029,5.452-5.521,8.299-7.403c2.797-1.85,6.143-2.787,9.944-2.787
		c3.313,0,5.89,0.761,7.656,2.261c1.766,1.503,2.624,3.439,2.624,5.919c0,1.204-0.333,2.228-1.018,3.127
		c-0.717,0.939-1.928,2.011-3.599,3.184c-1.709,1.201-4.048,2.604-6.95,4.17c-2.942,1.589-6.608,3.596-11,6.025
		c-4.118,2.34-7.586,4.763-10.308,7.202c-2.736,2.454-4.938,5.159-6.542,8.039c-1.608,2.885-2.758,6.115-3.415,9.601
		c-0.656,3.466-0.988,7.453-0.988,11.853v0.5h70.72v-21.16H391.202z"/>
	<polygon style="fill:#005ECE;" points="70.337,64.297 0,64.297 0,104.297 49.665,104.297 132.983,221.796 157.501,256.372 
		244.667,379.297 315,379.297 315,339.297 265.339,339.297 182.019,221.796 157.501,187.22 	"/>
</g>
<g>
</g>
<g>
</g>
<g>
</g>
<g>
</g>
<g>
</g>
<g>
</g>
<g>
</g>
<g>
</g>
<g>
</g>
<g>
</g>
<g>
</g>
<g>
</g>
<g>
</g>
<g>
</g>
<g>
</g>
</svg>
