<?xml version="1.0" encoding="iso-8859-1"?>
<!-- Generator: Adobe Illustrator 19.0.0, SVG Export Plug-In . SVG Version: 6.00 Build 0)  -->
<svg version="1.1" id="Layer_1" xmlns="http://www.w3.org/2000/svg" xmlns:xlink="http://www.w3.org/1999/xlink" x="0px" y="0px"
	 viewBox="0 0 491.498 491.498" style="enable-background:new 0 0 491.498 491.498;" xml:space="preserve">
<g>
	<path style="fill:#9BC9FF;" d="M160.837,304.736c1.406,0.579,2.804,1.184,4.191,1.831c48.475,22.604,69.522,80.432,46.918,128.906
		c-1.197,2.568-2.513,5.057-3.916,7.483c0.009,0.022,37.719-65.293,37.719-65.293l-63.508-110L160.837,304.736z"/>
	<path style="fill:#9BC9FF;" d="M387.039,132.942c12.02-20.819,15.213-45.073,8.991-68.294S374.916,22.02,354.097,10l-17.32-10
		l-91.027,157.664l63.508,110L387.039,132.942z"/>
	<path style="fill:#BDDBFF;" d="M326.469,306.567c1.387-0.647,2.786-1.253,4.191-1.831l-21.403-37.072l-63.508-110L154.722,0
		l-17.32,10c-20.819,12.02-35.711,31.428-41.934,54.648s-3.029,47.475,8.991,68.294l77.782,134.722l63.508,110l37.71,65.316
		c-1.395-2.45-2.71-4.939-3.907-7.506C256.948,386.999,277.995,329.172,326.469,306.567z"/>
	<path style="fill:#005ECE;" d="M455.375,353.485c-15.87-34.033-50.397-56.024-87.962-56.024c-12.688,0-25.029,2.45-36.752,7.275
		c-1.406,0.579-2.804,1.184-4.191,1.831c-48.474,22.604-69.521,80.432-46.917,128.906c1.197,2.567,2.512,5.056,3.915,7.481
		c17.193,29.735,49.316,48.544,84.048,48.544c14.209,0,27.985-3.063,40.943-9.106C456.932,459.787,477.979,401.96,455.375,353.485z
		 M391.553,446.14c-7.625,3.556-15.713,5.358-24.039,5.358c-22.085,0-42.382-12.926-51.71-32.929
		c-13.283-28.485-0.915-62.467,27.57-75.75c7.625-3.556,15.713-5.358,24.039-5.358c22.085,0,42.382,12.926,51.71,32.929
		C432.406,398.875,420.038,432.856,391.553,446.14z"/>
	<path style="fill:#2488FF;" d="M165.028,306.567c-1.387-0.647-2.786-1.253-4.191-1.831c-11.723-4.826-24.063-7.275-36.752-7.275
		c-37.565,0-72.092,21.991-87.962,56.024c-22.604,48.475-1.557,106.302,46.918,128.906c12.956,6.042,26.731,9.105,40.941,9.106
		c34.735,0,66.855-18.807,84.048-48.541c1.403-2.426,2.719-4.916,3.916-7.483C234.55,386.999,213.503,329.172,165.028,306.567z
		 M175.694,418.569c-9.329,20.005-29.625,32.93-51.709,32.929c-8.328-0.001-16.416-1.804-24.04-5.358
		c-28.485-13.283-40.854-47.265-27.571-75.75c9.328-20.003,29.625-32.929,51.71-32.929c8.325,0,16.413,1.803,24.038,5.358
		C176.609,356.103,188.977,390.084,175.694,418.569z"/>
</g>
<g>
</g>
<g>
</g>
<g>
</g>
<g>
</g>
<g>
</g>
<g>
</g>
<g>
</g>
<g>
</g>
<g>
</g>
<g>
</g>
<g>
</g>
<g>
</g>
<g>
</g>
<g>
</g>
<g>
</g>
</svg>
