<?xml version="1.0" encoding="iso-8859-1"?>
<!-- Generator: Adobe Illustrator 19.0.0, SVG Export Plug-In . SVG Version: 6.00 Build 0)  -->
<svg version="1.1" id="Layer_1" xmlns="http://www.w3.org/2000/svg" xmlns:xlink="http://www.w3.org/1999/xlink" x="0px" y="0px"
	 viewBox="0 0 488.948 488.948" style="enable-background:new 0 0 488.948 488.948;" xml:space="preserve">
<g>
	<polygon style="fill:#2488FF;" points="434.806,393.301 434.806,95.647 460.663,121.505 488.948,93.22 414.806,19.079 
		340.663,93.222 368.948,121.505 394.806,95.647 394.806,393.301 368.948,367.443 340.663,395.728 414.806,469.87 488.948,395.728 
		460.663,367.443 	"/>
	<polygon style="fill:#005ECE;" points="0,176.974 40,176.974 40,126.974 137.5,126.974 137.5,361.974 87.5,361.974 87.5,401.974 
		227.5,401.974 227.5,361.974 177.5,361.974 177.5,126.974 275,126.974 275,176.974 315,176.974 315,86.974 0,86.974 	"/>
</g>
<g>
</g>
<g>
</g>
<g>
</g>
<g>
</g>
<g>
</g>
<g>
</g>
<g>
</g>
<g>
</g>
<g>
</g>
<g>
</g>
<g>
</g>
<g>
</g>
<g>
</g>
<g>
</g>
<g>
</g>
</svg>
