<?xml version="1.0" encoding="iso-8859-1"?>
<!-- Generator: Adobe Illustrator 19.0.0, SVG Export Plug-In . SVG Version: 6.00 Build 0)  -->
<svg version="1.1" id="Layer_1" xmlns="http://www.w3.org/2000/svg" xmlns:xlink="http://www.w3.org/1999/xlink" x="0px" y="0px"
	 viewBox="0 0 392.138 392.138" style="enable-background:new 0 0 392.138 392.138;" xml:space="preserve">
<g>
	<path style="fill:#2488FF;" d="M372.53,132.618l-36.85,15.562c7.632,18.07,11.501,37.276,11.501,57.084
		c0,80.987-65.888,146.874-146.874,146.874c-80.986,0-146.874-65.887-146.874-146.874c0-41.361,17.636-80.793,47.86-108.46
		l-5.816-5.844L186.437,0H4.957l68.108,68.439C57.53,82.913,44.43,100.003,34.613,118.775
		c-13.856,26.498-21.181,56.405-21.181,86.489c0,103.042,83.831,186.874,186.874,186.874c103.043,0,186.874-83.832,186.874-186.874
		C387.181,180.081,382.251,155.64,372.53,132.618z"/>
	<polygon style="fill:#005ECE;" points="101.293,96.804 186.437,182.36 186.437,0 95.477,90.96 	"/>
</g>
<g>
</g>
<g>
</g>
<g>
</g>
<g>
</g>
<g>
</g>
<g>
</g>
<g>
</g>
<g>
</g>
<g>
</g>
<g>
</g>
<g>
</g>
<g>
</g>
<g>
</g>
<g>
</g>
<g>
</g>
</svg>
